<svg xmlns="http://www.w3.org/2000/svg" version="1.1" xmlns:xlink="http://www.w3.org/1999/xlink" xmlns:svgjs="http://svgjs.dev/svgjs" viewBox="0 0 800 400"><path d="M386.021484375,5.734768390655518C385.9468129475911,10.88709843158722,385.64812723795575,57.3327405055364,385.12542724609375,67.56272888183594C384.60272725423175,77.79271725813548,385.79747009277344,124.53704261779785,379.74908447265625,128.49462890625C373.70069885253906,132.45221519470215,320.2359568277995,111.61887868245442,312.5447998046875,115.05376434326172C304.8536427815755,118.48865000406902,282.5268859863281,160.75268363952637,287.4552001953125,169.7132568359375C292.3835144042969,178.67383003234863,356.07823944091797,222.5806427001953,371.6845703125,222.5806427001953C387.29090118408203,222.5806427001953,462.85840861002606,170.08661397298178,474.7311706542969,169.7132568359375C486.6039326985677,169.33989969889322,516.1738433837891,205.40621185302734,514.15771484375,218.10035705566406C512.1415863037109,230.79450225830078,464.2771759033203,314.3518409729004,450.5376281738281,322.0429992675781C436.79808044433594,329.73415756225586,355.63021596272785,307.0340398152669,349.28314208984375,310.3942565917969C342.93606821695965,313.75447336832684,372.3566131591797,356.0185267130534,374.37274169921875,362.3656005859375C376.3888702392578,368.7126744588216,373.5513559977214,384.5430145263672,373.4766845703125,386.55914306640625" fill="none" stroke-width="8" stroke="url(&quot;#SvgjsLinearGradient1003&quot;)" stroke-linecap="round" transform="matrix(1,0,0,1,0.2618408203125,3.85304594039917)" stroke-dasharray="0 0" stroke-opacity="1"></path><defs><linearGradient id="SvgjsLinearGradient1003"><stop stop-color="hsl(37, 99%, 67%)" offset="0"></stop><stop stop-color="hsl(316, 73%, 52%)" offset="1"></stop></linearGradient></defs></svg>